# Exported from Wings 3D 1.0.2
mtllib ElektroCheese.mtl
o cube1
#71 vertices, 69 faces
v 1.10024625 0.46098316 -0.78028623
v 1.10024625 -1.06920828 -0.78028623
v 0.68852625 -1.06920828 -1.19200623
v 0.68852625 0.46098316 -1.19200623
v 1.10024625 0.46098316 -1.19200623
v 1.10024625 -1.06920828 -1.19200623
v 0.95897497 -1.06920828 -0.78028623
v 0.68852625 -1.06920828 -1.05073495
v 0.95897497 0.46098316 -0.78028623
v 0.68852625 0.46098316 -1.05073495
v 0.0000000e+0 0.39139476 1.36444444
v 0.0000000e+0 -1.00000000 1.36444444
v -1.00000000 -1.00000000 -1.00000000
v -1.00000000 0.39139476 -1.00000000
v 1.00000000 0.39139476 -1.00000000
v 1.00000000 -1.00000000 -1.00000000
v -0.44839094 0.39139476 -4.4222683e-2
v -0.13944905 0.39139476 0.48137041
v 0.16949284 0.39139476 -4.4222683e-2
v -0.13944905 -1.1934799e-2 0.19489368
v 0.44816657 -0.68810163 0.16448431
v 0.76065928 -0.85796611 -0.55157495
v 0.71208818 -0.19393426 -0.43304392
v 0.40056024 -0.55401307 -0.32541349
v 0.52355040 0.38501615 0.22531393
v 0.37438945 0.38838240 -0.20806151
v 0.79505629 0.38625764 -0.43587166
v 0.65111006 4.9485588e-2 -0.16080425
v 0.49649116 0.15393414 -0.17739464
v -0.23323988 -1.00000000 0.81296170
v 3.7858468e-2 -1.00000000 -0.24168993
v -0.76676012 -1.00000000 -0.44851725
v -0.68088052 -0.49664759 -0.24545971
v -0.31911948 -0.49664759 0.60990416
v -0.22563747 -0.61765699 6.2166286e-2
v 0.16507465 -0.73338788 -0.90565593
v 0.16507465 0.13065892 -0.90565593
v 0.39847465 0.13065892 -0.90565593
v 0.39847465 -0.73338788 -0.90565593
v 0.16507465 -0.73338788 -1.13905593
v 0.16507465 0.13065892 -1.13905593
v 0.39847465 0.13065892 -1.13905593
v 0.39847465 -0.73338788 -1.13905593
v -0.36535832 -0.73338788 -0.90565593
v -0.36535832 0.13065892 -0.90565593
v -0.13195832 0.13065892 -0.90565593
v -0.13195832 -0.73338788 -0.90565593
v -0.36535832 -0.73338788 -1.13905593
v -0.36535832 0.13065892 -1.13905593
v -0.13195832 0.13065892 -1.13905593
v -0.13195832 -0.73338788 -1.13905593
v -0.29117380 0.46098316 1.14042396
v -0.29117380 -1.06920828 1.14042396
v 0.29108621 -1.06920828 1.14042396
v 0.29108621 0.46098316 1.14042396
v -4.3791484e-5 0.46098316 1.43155396
v -4.3791484e-5 -1.06920828 1.43155396
v -0.19127992 -1.06920828 1.04053008
v 0.19119233 -1.06920828 1.04053008
v -0.19127992 0.46098316 1.04053008
v 0.19119233 0.46098316 1.04053008
v -1.11975697 0.46098316 -0.78028623
v -1.11975697 -1.06920828 -0.78028623
v -0.70803697 -1.06920828 -1.19200623
v -0.70803697 0.46098316 -1.19200623
v -1.11975697 0.46098316 -1.19200623
v -1.11975697 -1.06920828 -1.19200623
v -0.97848569 -1.06920828 -0.78028623
v -0.70803697 -1.06920828 -1.05073495
v -0.97848569 0.46098316 -0.78028623
v -0.70803697 0.46098316 -1.05073495
vt 3.0477778e-2 0.83086660
vt 3.2644444e-2 0.25120360
vt 4.2433188e-2 0.45449186
vt 4.9111111e-2 0.22378170
vt 4.9594704e-2 1.3292779e-2
vt 5.7363154e-2 0.95061871
vt 7.8054750e-2 0.86806779
vt 8.2127955e-2 0.92310174
vt 8.9025153e-2 0.89558477
vt 0.11884613 0.24745401
vt 0.16029875 0.31709388
vt 0.16746521 0.47341408
vt 0.17470003 0.71469359
vt 0.20455269 0.55409687
vt 0.22900551 0.27416105
vt 0.23763687 0.92310174
vt 0.23826804 0.22425253
vt 0.24001261 0.66375561
vt 0.24453407 0.89558477
vt 0.24453645 6.1473338e-2
vt 0.24860728 0.95061871
vt 0.26929887 0.86806779
vt 0.27282386 0.47355852
vt 0.27282386 0.68046278
vt 0.29087727 0.75672232
vt 0.29658042 0.20160450
vt 0.30060232 0.17529468
vt 0.30084495 0.31382747
vt 0.31151793 7.9849120e-2
vt 0.32309053 0.83659762
vt 0.33770842 0.24173030
vt 0.34088392 0.95665295
vt 0.34217033 0.13674099
vt 0.35150367 0.22286159
vt 0.36145858 3.4987530e-2
vt 0.36157551 0.87410204
vt 0.36564872 0.92913598
vt 0.37254592 0.90161901
vt 0.42501232 0.44572440
vt 0.42542031 0.24190588
vt 0.43798480 1.2133333e-2
vt 0.44277796 0.22352339
vt 0.46328907 0.42738781
vt 0.52115764 0.92913598
vt 0.52805484 0.90161901
vt 0.53212804 0.95665295
vt 0.55244008 0.27613370
vt 0.55281964 0.87410204
vt 0.57022940 0.47355852
vt 0.57022940 0.68046278
vt 0.58972940 0.49435852
vt 0.58972940 0.72190223
vt 0.59462554 0.91695871
vt 0.59462554 0.93796615
vt 0.60028786 0.24238928
vt 0.60087506 0.19597840
vt 0.60832723 0.81974760
vt 0.60832723 0.84075503
vt 0.61073683 0.49435852
vt 0.61073683 0.72190223
vt 0.62367556 5.6188889e-2
vt 0.63484202 0.87674224
vt 0.64733107 0.27223636
vt 0.64854370 0.77953113
vt 0.65584945 0.87674224
vt 0.65584945 0.93796615
vt 0.66761152 0.49435852
vt 0.66761152 0.72190223
vt 0.66955113 0.77953113
vt 0.66955113 0.84075503
vt 0.68073821 0.29806391
vt 0.68861895 0.49435852
vt 0.68861895 0.72190223
vt 0.70348031 0.22857002
vt 0.70802940 0.93022929
vt 0.71192940 0.83553851
vt 0.71798584 0.28557991
vt 0.72288390 0.94508379
vt 0.72450965 0.49577704
vt 0.72450965 0.72332075
vt 0.72678390 0.85039301
vt 0.73505410 0.25802149
vt 0.73505410 3.0477778e-2
vt 0.74504037 0.33618647
vt 0.74551708 0.72332075
vt 0.74551708 0.49577704
vt 0.75132124 0.88693745
vt 0.75522124 0.79224667
vt 0.75606153 3.0477778e-2
vt 0.75606153 0.25802149
vt 0.77939854 0.42375914
vt 0.77975858 0.94508379
vt 0.78365858 0.85039301
vt 0.79461308 0.93022929
vt 0.79851308 0.83553851
vt 0.80239177 0.72332075
vt 0.80239177 0.49577704
vt 0.81293621 3.0477778e-2
vt 0.81293621 0.25802149
vt 0.82339920 0.49577704
vt 0.82339920 0.72332075
vt 0.83394364 0.25802149
vt 0.83394364 3.0477778e-2
vt 0.85719920 0.74253186
vt 0.85719920 0.97007557
vt 0.85979920 1.7477778e-2
vt 0.85979920 0.24502149
vt 0.85994364 0.48725482
vt 0.85994364 0.71479853
vt 0.89220164 0.38288668
vt 0.89220164 0.44411059
vt 0.89696830 0.28598500
vt 0.89696830 0.34720891
vt 0.91320907 0.38288668
vt 0.91797574 0.28598500
vt 0.91842310 0.74253186
vt 0.91842310 0.97007557
vt 0.92102310 1.7477778e-2
vt 0.92102310 0.24502149
vt 0.92116755 0.48725482
vt 0.92116755 0.71479853
vt 0.95342554 0.42310316
vt 0.95342554 0.44411059
vt 0.95819221 0.32620148
vt 0.95819221 0.34720891
vt 0.97964701 0.74253186
vt 0.97964701 0.97007557
vt 0.98224701 1.7477778e-2
vt 0.98224701 0.24502149
vt 0.98239145 0.48725482
vt 0.98239145 0.71479853
vn 0.0000000e+0 0.0000000e+0 1.00000000
vn 1.00000000 0.0000000e+0 0.0000000e+0
vn 0.0000000e+0 1.00000000 0.0000000e+0
vn 0.0000000e+0 0.0000000e+0 1.00000000
vn 1.00000000 0.0000000e+0 0.0000000e+0
vn -2.6724029e-16 -1.00000000 0.0000000e+0
vn 0.0000000e+0 0.0000000e+0 -1.00000000
vn -1.00000000 0.0000000e+0 0.0000000e+0
vn 0.0000000e+0 -1.00000000 0.0000000e+0
vn 0.0000000e+0 1.00000000 0.0000000e+0
vn 0.0000000e+0 0.0000000e+0 -1.00000000
vn -1.00000000 0.0000000e+0 0.0000000e+0
vn 1.00000000 0.0000000e+0 0.0000000e+0
vn 0.0000000e+0 1.00000000 0.0000000e+0
vn 0.0000000e+0 0.0000000e+0 -1.00000000
vn 0.0000000e+0 1.00000000 0.0000000e+0
vn 1.00000000 0.0000000e+0 0.0000000e+0
vn -1.3362014e-16 -1.00000000 0.0000000e+0
vn 0.0000000e+0 0.0000000e+0 -1.00000000
vn -1.3362014e-16 -1.00000000 0.0000000e+0
vn 0.0000000e+0 0.0000000e+0 1.00000000
vn -2.6724029e-16 -1.00000000 0.0000000e+0
vn -0.70710678 -2.3712347e-17 0.70710678
vn -1.3362014e-16 -1.00000000 0.0000000e+0
vn -1.00000000 0.0000000e+0 0.0000000e+0
vn -0.70710678 -2.3712347e-17 0.70710678
vn -1.3362014e-16 -1.00000000 0.0000000e+0
vn 0.0000000e+0 0.0000000e+0 1.00000000
vn 0.0000000e+0 1.00000000 0.0000000e+0
vn -0.70710678 -2.3712347e-17 0.70710678
vn 0.0000000e+0 1.00000000 0.0000000e+0
vn 0.0000000e+0 1.00000000 0.0000000e+0
vn -1.00000000 0.0000000e+0 0.0000000e+0
vn -0.70710678 -2.3712347e-17 0.70710678
vn -0.92101503 -1.7880648e-17 0.38952703
vn 5.0446524e-3 0.99998709 6.0697978e-4
vn 0.91991945 -7.5879005e-2 0.38469544
vn 0.91991945 -7.5879005e-2 0.38469544
vn 0.91991945 -7.5879005e-2 0.38469544
vn 5.0446524e-3 0.99998709 6.0697978e-4
vn -0.92101503 -1.7880648e-17 0.38952703
vn 0.92575612 0.10225881 0.36403123
vn 0.92575612 0.10225881 0.36403123
vn -0.92101503 0.0000000e+0 0.38952703
vn 0.0000000e+0 -1.00000000 0.0000000e+0
vn 0.0000000e+0 0.0000000e+0 -1.00000000
vn 0.0000000e+0 -1.00000000 0.0000000e+0
vn -0.92101503 -5.7772195e-17 0.38952703
vn 0.0000000e+0 0.0000000e+0 -1.00000000
vn -0.92101503 -4.6766746e-17 0.38952703
vn 2.0259664e-16 1.00000000 -3.7257014e-17
vn 2.0259664e-16 1.00000000 -3.7257014e-17
vn -0.92101503 -4.6766746e-17 0.38952703
vn 0.0000000e+0 0.0000000e+0 -1.00000000
vn 1.0476521e-2 0.99989333 1.0177461e-2
vn 1.0476521e-2 0.99989333 1.0177461e-2
vn 0.91466897 -6.8936036e-2 0.39828193
vn 0.91466897 -6.8936036e-2 0.39828193
vn 0.0000000e+0 0.0000000e+0 -1.00000000
vn 0.0000000e+0 -1.00000000 0.0000000e+0
vn 0.90237101 9.9609687e-2 0.41929044
vn 0.90237101 9.9609687e-2 0.41929044
vn 0.0000000e+0 -1.00000000 0.0000000e+0
vn 2.0259664e-16 1.00000000 -3.7257014e-17
vn 2.0259664e-16 1.00000000 -3.7257014e-17
vn 0.81115749 0.33865823 -0.47679570
vn 0.0000000e+0 0.50997009 0.86019213
vn 5.0446524e-3 0.99998709 6.0697978e-4
vn 0.81115749 0.33865823 -0.47679570
vn -0.81115749 0.33865823 -0.47679570
vn 5.0446524e-3 0.99998709 6.0697978e-4
vn 1.1860093e-2 0.99991213 5.9227532e-3
vn 1.1860093e-2 0.99991213 5.9227532e-3
vn -0.81115749 0.33865823 -0.47679570
vn 0.0000000e+0 0.50997009 0.86019213
vn 1.1860093e-2 0.99991213 5.9227532e-3
vn 1.1860093e-2 0.99991213 5.9227532e-3
vn 0.81115749 0.33865823 -0.47679570
vn -0.81115749 0.33865823 -0.47679570
vn 0.0000000e+0 0.50997009 0.86019213
vn 0.92749924 5.5948105e-2 0.36961461
vn 0.92749924 5.5948105e-2 0.36961461
vn 0.92749924 5.5948105e-2 0.36961461
vn 0.69324765 -0.67514682 -0.25215962
vn 0.68579460 0.71620168 0.12938675
vn 0.90237101 9.9609687e-2 0.41929044
vn 0.90237101 9.9609687e-2 0.41929044
vn 0.68579460 0.71620168 0.12938675
vn 0.44992172 -0.12493694 0.88428571
vn 0.91203700 -9.1370473e-2 0.39979989
vn 0.91203700 -9.1370473e-2 0.39979989
vn 0.91203700 -9.1370473e-2 0.39979989
vn 0.69324765 -0.67514682 -0.25215962
vn 0.44992172 -0.12493694 0.88428571
vn 0.91203700 -9.1370473e-2 0.39979989
vn 0.69324765 -0.67514682 -0.25215962
vn 0.68579460 0.71620168 0.12938675
vn 0.44992172 -0.12493694 0.88428571
vn 0.88680638 -0.19017582 0.42119781
vn 1.3243287e-2 0.99991091 1.6683592e-3
vn 0.86297994 0.41100936 -0.29383147
vn 0.53301243 0.71791464 -0.44776815
vn 1.3243287e-2 0.99991091 1.6683592e-3
vn 1.8674861e-2 0.99976245 1.1238250e-2
vn 0.86297994 0.41100936 -0.29383147
vn 0.44886000 0.34176863 0.82566271
vn 1.8674861e-2 0.99976245 1.1238250e-2
vn 2.0950808e-2 0.99957332 2.0352751e-2
vn 0.93321319 -0.13182139 0.33426975
vn 0.27550353 0.53472585 0.79885297
vn 0.44886000 0.34176863 0.82566271
vn 0.91150535 -0.16126320 0.37835457
vn 0.91150535 -0.16126320 0.37835457
vn 0.27550353 0.53472585 0.79885297
vn 0.53301243 0.71791464 -0.44776815
vn 0.86297994 0.41100936 -0.29383147
vn 0.27550353 0.53472585 0.79885297
vn 0.53301243 0.71791464 -0.44776815
vn 0.44886000 0.34176863 0.82566271
vn -0.92101503 0.0000000e+0 0.38952703
vn 0.0000000e+0 -1.00000000 0.0000000e+0
vn -0.87665980 -0.42507291 -0.22534553
vn -0.96980046 -0.21322945 -0.11840724
vn 0.0000000e+0 -1.00000000 0.0000000e+0
vn 0.0000000e+0 -1.00000000 0.0000000e+0
vn -0.87665980 -0.42507291 -0.22534553
vn -0.18128182 -0.68540110 0.70523913
vn 0.0000000e+0 -1.00000000 0.0000000e+0
vn -0.92101503 -5.7772195e-17 0.38952703
vn -0.58541397 -0.21542122 0.78159080
vn -0.18128182 -0.68540110 0.70523913
vn -0.92101503 -4.6766746e-17 0.38952703
vn -0.92101503 -4.6766746e-17 0.38952703
vn -0.34506953 -0.92716138 0.14594106
vn -0.58541397 -0.21542122 0.78159080
vn -0.92101503 -1.7880648e-17 0.38952703
vn -0.92101503 -1.7880648e-17 0.38952703
vn -0.96980046 -0.21322945 -0.11840724
vn -0.34506953 -0.92716138 0.14594106
vn -0.87665980 -0.42507291 -0.22534553
vn -0.96980046 -0.21322945 -0.11840724
vn -0.34506953 -0.92716138 0.14594106
vn -0.58541397 -0.21542122 0.78159080
vn -0.18128182 -0.68540110 0.70523913
vn 0.0000000e+0 -1.00000000 0.0000000e+0
vn -1.00000000 0.0000000e+0 0.0000000e+0
vn 0.0000000e+0 1.00000000 0.0000000e+0
vn -1.00000000 0.0000000e+0 0.0000000e+0
vn 1.00000000 0.0000000e+0 0.0000000e+0
vn 0.0000000e+0 1.00000000 0.0000000e+0
vn 1.00000000 0.0000000e+0 0.0000000e+0
vn 0.0000000e+0 -1.00000000 0.0000000e+0
vn 0.0000000e+0 -1.00000000 0.0000000e+0
vn 0.0000000e+0 0.0000000e+0 -1.00000000
vn -1.00000000 0.0000000e+0 0.0000000e+0
vn 0.0000000e+0 1.00000000 0.0000000e+0
vn 0.0000000e+0 0.0000000e+0 -1.00000000
vn -1.00000000 0.0000000e+0 0.0000000e+0
vn 1.00000000 0.0000000e+0 0.0000000e+0
vn 0.0000000e+0 1.00000000 0.0000000e+0
vn 0.0000000e+0 0.0000000e+0 -1.00000000
vn 1.00000000 0.0000000e+0 0.0000000e+0
vn 0.0000000e+0 -1.00000000 0.0000000e+0
vn 0.0000000e+0 0.0000000e+0 -1.00000000
vn 0.0000000e+0 -1.00000000 0.0000000e+0
vn -1.00000000 0.0000000e+0 0.0000000e+0
vn 0.0000000e+0 1.00000000 0.0000000e+0
vn -1.00000000 0.0000000e+0 0.0000000e+0
vn 1.00000000 0.0000000e+0 0.0000000e+0
vn 0.0000000e+0 1.00000000 0.0000000e+0
vn 1.00000000 0.0000000e+0 0.0000000e+0
vn 0.0000000e+0 -1.00000000 0.0000000e+0
vn 0.0000000e+0 -1.00000000 0.0000000e+0
vn 0.0000000e+0 0.0000000e+0 -1.00000000
vn -1.00000000 0.0000000e+0 0.0000000e+0
vn 0.0000000e+0 1.00000000 0.0000000e+0
vn 0.0000000e+0 0.0000000e+0 -1.00000000
vn -1.00000000 0.0000000e+0 0.0000000e+0
vn 1.00000000 0.0000000e+0 0.0000000e+0
vn 0.0000000e+0 1.00000000 0.0000000e+0
vn 0.0000000e+0 0.0000000e+0 -1.00000000
vn 1.00000000 0.0000000e+0 0.0000000e+0
vn 0.0000000e+0 -1.00000000 0.0000000e+0
vn 0.0000000e+0 0.0000000e+0 -1.00000000
vn -0.70710678 0.0000000e+0 -0.70710678
vn -0.70710678 0.0000000e+0 0.70710678
vn 0.0000000e+0 1.00000000 0.0000000e+0
vn -0.70710678 0.0000000e+0 -0.70710678
vn -0.70710678 0.0000000e+0 0.70710678
vn 0.0000000e+0 -1.00000000 0.0000000e+0
vn 0.70710678 0.0000000e+0 0.70710678
vn 0.70710678 0.0000000e+0 -0.70710678
vn 0.0000000e+0 -1.00000000 1.9087735e-15
vn 0.0000000e+0 1.00000000 0.0000000e+0
vn 0.70710678 0.0000000e+0 0.70710678
vn 0.70710678 0.0000000e+0 -0.70710678
vn -0.70710678 0.0000000e+0 0.70710678
vn 0.0000000e+0 1.00000000 0.0000000e+0
vn 0.70710678 0.0000000e+0 0.70710678
vn 0.0000000e+0 1.00000000 0.0000000e+0
vn -0.70710678 0.0000000e+0 0.70710678
vn 0.0000000e+0 -1.00000000 9.5438674e-16
vn 0.70710678 0.0000000e+0 0.70710678
vn 0.0000000e+0 -1.00000000 9.5438674e-16
vn -0.70710678 0.0000000e+0 -0.70710678
vn 0.0000000e+0 -1.00000000 0.0000000e+0
vn 0.0000000e+0 0.0000000e+0 -1.00000000
vn 0.0000000e+0 -1.00000000 9.5438674e-16
vn 0.70710678 0.0000000e+0 -0.70710678
vn 0.0000000e+0 0.0000000e+0 -1.00000000
vn 0.0000000e+0 -1.00000000 9.5438674e-16
vn -0.70710678 0.0000000e+0 -0.70710678
vn 0.0000000e+0 1.00000000 0.0000000e+0
vn 0.0000000e+0 0.0000000e+0 -1.00000000
vn 0.0000000e+0 1.00000000 0.0000000e+0
vn 0.0000000e+0 1.00000000 0.0000000e+0
vn 0.70710678 0.0000000e+0 -0.70710678
vn 0.0000000e+0 0.0000000e+0 -1.00000000
vn 0.0000000e+0 0.0000000e+0 1.00000000
vn -1.00000000 0.0000000e+0 0.0000000e+0
vn 0.0000000e+0 1.00000000 0.0000000e+0
vn 0.0000000e+0 0.0000000e+0 1.00000000
vn -1.00000000 0.0000000e+0 0.0000000e+0
vn 2.6724029e-16 -1.00000000 0.0000000e+0
vn 0.0000000e+0 -1.00000000 0.0000000e+0
vn 0.0000000e+0 0.0000000e+0 -1.00000000
vn 1.00000000 0.0000000e+0 0.0000000e+0
vn 0.0000000e+0 0.0000000e+0 -1.00000000
vn 1.00000000 0.0000000e+0 0.0000000e+0
vn 0.0000000e+0 1.00000000 0.0000000e+0
vn -1.00000000 0.0000000e+0 0.0000000e+0
vn 0.0000000e+0 1.00000000 0.0000000e+0
vn 0.0000000e+0 0.0000000e+0 -1.00000000
vn 0.0000000e+0 1.00000000 0.0000000e+0
vn -1.00000000 0.0000000e+0 0.0000000e+0
vn 1.3362014e-16 -1.00000000 0.0000000e+0
vn 0.0000000e+0 0.0000000e+0 -1.00000000
vn 1.3362014e-16 -1.00000000 0.0000000e+0
vn 0.0000000e+0 0.0000000e+0 1.00000000
vn 0.70710678 0.0000000e+0 0.70710678
vn 2.6724029e-16 -1.00000000 0.0000000e+0
vn 1.3362014e-16 -1.00000000 0.0000000e+0
vn 1.00000000 0.0000000e+0 0.0000000e+0
vn 0.70710678 0.0000000e+0 0.70710678
vn 1.3362014e-16 -1.00000000 0.0000000e+0
vn 0.0000000e+0 0.0000000e+0 1.00000000
vn 0.0000000e+0 1.00000000 0.0000000e+0
vn 0.70710678 0.0000000e+0 0.70710678
vn 0.0000000e+0 1.00000000 0.0000000e+0
vn 1.00000000 0.0000000e+0 0.0000000e+0
vn 0.70710678 0.0000000e+0 0.70710678
vn 0.0000000e+0 1.00000000 0.0000000e+0
g cube1_default
usemtl default
f 1/73/1 9/68/28 7/67/21 2/72/4
f 2/106/5 6/118/17 5/119/13 1/107/2
f 2/110/6 7/114/22 8/122/24 6/111/18
f 3/51/8 8/59/25 10/60/33 4/52/12
f 4/129/11 5/119/15 6/118/19 3/128/7
f 4/58/10 10/57/32 9/64/29 5/70/14
f 5/70/16 9/64/31 1/69/3
f 6/111/20 8/122/27 3/123/9
f 7/67/23 9/68/30 10/60/34 8/59/26
f 11/61/36 18/56/68 17/47/64 14/43/51
f 11/4/39 23/33/92 28/27/112 25/17/99
f 11/39/41 34/28/137 30/31/120 12/40/44
f 12/5/42 21/20/81 11/4/37
f 13/2/48 32/10/129 33/11/133 14/3/53
f 14/50/49 15/24/54 16/23/59 13/49/46
f 14/43/52 17/47/65 19/63/73 15/91/56
f 14/3/50 33/11/132 34/28/136 11/39/35
f 15/42/57 23/33/90 22/35/87 16/41/62
f 15/42/58 27/34/109 28/27/113 23/33/95
f 16/41/61 22/35/86 21/20/82 12/5/43
f 16/1/60 31/13/124 32/25/128 13/30/47
f 17/47/67 20/55/80 19/63/75
f 18/56/69 20/55/78 17/47/66
f 19/63/74 20/55/79 18/56/70
f 19/63/77 25/74/103 26/71/107
f 19/63/72 26/71/104 27/84/108 15/91/55
f 21/20/83 23/33/91 11/4/38
f 21/20/84 24/29/96 23/33/93
f 22/35/88 24/29/97 21/20/85
f 23/33/94 24/29/98 22/35/89
f 25/74/100 19/63/76 18/56/71 11/61/40
f 25/74/101 29/77/116 26/71/105
f 26/71/106 29/77/119 27/84/111
f 27/34/110 29/26/117 28/27/114
f 28/27/115 29/26/118 25/17/102
f 30/14/121 31/13/125 16/1/63 12/12/45
f 30/14/122 35/18/140 31/13/126
f 31/13/127 35/18/144 32/25/131
f 32/10/130 35/15/143 33/11/135
f 33/11/134 35/15/142 34/28/139
f 34/28/138 35/15/141 30/31/123
f 36/21/145 40/16/153 43/19/163 39/22/152
f 37/6/148 41/8/158 40/16/155 36/21/146
f 38/7/150 42/9/160 41/8/156 37/6/147
f 39/22/151 43/19/162 42/9/159 38/7/149
f 41/8/157 42/9/161 43/19/164 40/16/154
f 44/46/165 48/44/173 51/45/183 47/48/172
f 45/32/168 49/37/178 48/44/175 44/46/166
f 46/36/170 50/38/180 49/37/176 45/32/167
f 47/48/171 51/45/182 50/38/179 46/36/169
f 49/37/177 50/38/181 51/45/184 48/44/174
f 52/101/185 60/96/212 58/97/205 53/100/188
f 53/108/189 57/120/201 56/121/197 52/109/186
f 53/95/190 58/93/206 59/81/208 57/88/202
f 54/79/192 59/86/209 61/85/217 55/80/196
f 55/131/195 56/121/199 57/120/203 54/130/191
f 55/94/194 61/92/216 60/78/213 56/87/198
f 56/87/200 60/78/215 52/75/187
f 57/88/204 59/81/211 54/76/193
f 58/97/207 60/96/214 61/85/218 59/86/210
f 62/127/220 66/117/231 67/116/235 63/126/223
f 62/112/221 70/115/247 71/124/249 66/113/232
f 63/83/222 68/89/239 70/90/246 62/82/219
f 64/104/226 67/116/237 66/117/233 65/105/228
f 64/54/225 69/53/242 67/66/236
f 65/102/229 71/99/250 69/98/243 64/103/227
f 66/113/234 71/124/252 65/125/230
f 67/66/238 69/53/245 68/62/241 63/65/224
f 69/98/244 71/99/251 70/90/248 68/89/240
